<svg width="42" height="42" viewBox="0 0 42 42" fill="none" xmlns="http://www.w3.org/2000/svg">
<path id="Arrow 1" d="M0.87868 36.8787C-0.292893 38.0503 -0.292893 39.9497 0.87868 41.1213C2.05025 42.2929 3.94975 42.2929 5.12132 41.1213L0.87868 36.8787ZM42 3C42 1.34315 40.6569 1.54801e-07 39 7.44857e-07L12 -9.41017e-07C10.3431 -9.41017e-07 9 1.34314 9 3C9 4.65685 10.3431 6 12 6H36V30C36 31.6569 37.3431 33 39 33C40.6569 33 42 31.6569 42 30L42 3ZM5.12132 41.1213L41.1213 5.12132L36.8787 0.878679L0.87868 36.8787L5.12132 41.1213Z" fill="black"/>
</svg>
