<?xml version="1.0"?>
<svg version="1.1" id="Layer_1" xmlns="http://www.w3.org/2000/svg" x="0" y="0" viewBox="0 0 100 100" xml:space="preserve"><g><path d="M83.8 31.2H16.2c-3.5 0-6.2-2.8-6.2-6.2s2.8-6.2 6.2-6.2h67.5c3.5 0 6.2 2.8 6.2 6.2s-2.7 6.2-6.1 6.2z" fill="#666766"/></g><g><path d="M83.8 56.2H16.2c-3.5 0-6.2-2.8-6.2-6.2s2.8-6.2 6.2-6.2h67.5c3.5 0 6.2 2.8 6.2 6.2s-2.7 6.2-6.1 6.2z" fill="#666766"/></g><g><path d="M83.8 81.2H16.2c-3.5 0-6.2-2.8-6.2-6.2s2.8-6.2 6.2-6.2h67.5c3.5 0 6.2 2.8 6.2 6.2s-2.7 6.2-6.1 6.2z" fill="#666766"/></g><metadata xmlns:d="https://loading.io/stock/"><d:name>menu</d:name><d:tags>hamburger,dropdown,responsive,mobile,info,navbar,navigation,tab,menu,web application</d:tags><d:license>free</d:license><d:slug>hs2nrd</d:slug></metadata></svg>